# xmcd
#
# Track frame offsets: 
#        150
#        18960
#        35270
#        49662
#        69367
#        86000
#        101857
#        118300
#        137185
#        155902
#        175067
#        191422
#        202965
#        231785
#        247322
#        263332
#        280150
#
# Disc length: 4017 seconds
#
# Revision: 31
# Processed by: cddbd v1.5.2PL0 Copyright (c) Steve Scherf et al.
# Submitted via: ExactAudioCopy v1.3
#
DISCID=ef0faf11
DTITLE=Fleetwood Mac - Greatest Hits
DYEAR=1988
DGENRE=Pop
TTITLE0=Rhiannon
TTITLE1=Go Your Own Way
TTITLE2=Don't Stop
TTITLE3=Gypsy
TTITLE4=Everywhere
TTITLE5=You Make Loving Fun
TTITLE6=Big Love
TTITLE7=As Long As You Follow
TTITLE8=Say You Love Me
TTITLE9=Dreams
TTITLE10=Little Lies
TTITLE11=Oh Diane
TTITLE12=Sara
TTITLE13=Tusk
TTITLE14=Seven Wonders
TTITLE15=Hold Me
TTITLE16=No Questions Asked
EXTD=YEAR: 1988
EXTT0=
EXTT1=
EXTT2=
EXTT3=
EXTT4=
EXTT5=
EXTT6=
EXTT7=
EXTT8=
EXTT9=
EXTT10=
EXTT11=
EXTT12=
EXTT13=
EXTT14=
EXTT15=
EXTT16=
PLAYORDER=
